<svg width="221" height="178" viewBox="0 0 221 178" fill="none" xmlns="http://www.w3.org/2000/svg">
<g clip-path="url(#clip0_5_5)">
<path d="M146.796 62C146.796 82.7107 130.007 99.5 109.296 99.5C88.5856 99.5 71.7963 82.7107 71.7963 62C71.7963 41.2893 88.5856 24.5 109.296 24.5C130.007 24.5 146.796 41.2893 146.796 62Z" stroke="black" stroke-width="10"/>
<path d="M146.796 62C146.796 82.7107 130.007 99.5 109.296 99.5C88.5856 99.5 71.7963 82.7107 71.7963 62C71.7963 41.2893 88.5856 24.5 109.296 24.5C130.007 24.5 146.796 41.2893 146.796 62Z" stroke="black" stroke-width="10"/>
<path d="M185.431 165.5C185.431 194.219 151.741 217.5 110.181 217.5C68.6219 217.5 34.9313 194.219 34.9313 165.5C34.9313 136.781 68.6219 113.5 110.181 113.5C151.741 113.5 185.431 136.781 185.431 165.5Z" stroke="black" stroke-width="10"/>
</g>
<defs>
<clipPath id="clip0_5_5">
<rect width="221" height="178" fill="white"/>
</clipPath>
</defs>
</svg>
